<?xml version="1.0" encoding="UTF-8"?>
<!DOCTYPE svg PUBLIC "-//W3C//DTD SVG 1.1//EN" "http://www.w3.org/Graphics/SVG/1.1/DTD/svg11.dtd">
<!-- Creator: CorelDRAW X6 -->
<svg xmlns="http://www.w3.org/2000/svg" xml:space="preserve" width="25.4mm" height="25.4mm" version="1.1" style="shape-rendering:geometricPrecision; text-rendering:geometricPrecision; image-rendering:optimizeQuality; fill-rule:evenodd; clip-rule:evenodd"
viewBox="0 0 2540 2540"
 xmlns:xlink="http://www.w3.org/1999/xlink">
 <defs>
  <style type="text/css">
   <![CDATA[
    .fil0 {fill:#fff}
   ]]>
  </style>
 </defs>
 <g id="Layer_x0020_1">
  <metadata id="CorelCorpID_0Corel-Layer"/>
  <path class="fil0" d="M662 589c122,-6 206,64 286,106 49,26 160,-26 331,-23 247,5 241,65 330,10 71,-44 174,-100 272,-94 32,50 44,137 39,205 -9,138 -49,62 24,171 75,113 86,236 63,390 -42,287 -226,410 -521,442 43,92 75,63 73,274 -1,98 -23,257 26,321 95,24 318,-116 375,-161 105,-83 197,-164 271,-274 571,-845 -82,-1876 -975,-1857 -627,13 -1061,457 -1154,1013 -143,852 733,1363 849,1272 43,-34 23,-164 24,-263 -157,16 -295,7 -368,-92 -28,-38 -55,-111 -86,-155 -64,-93 -110,-48 -114,-130 203,-30 204,139 324,214 56,35 166,40 224,9 36,-19 29,-44 47,-90 18,-45 30,-48 46,-79 -295,-38 -471,-151 -520,-432 -26,-151 -10,-301 68,-408 69,-94 24,-51 19,-177 -2,-60 6,-131 35,-180l10 -13z"/>
 </g>
</svg>
