<?xml version="1.0" encoding="UTF-8"?>
<!DOCTYPE svg PUBLIC "-//W3C//DTD SVG 1.1//EN" "http://www.w3.org/Graphics/SVG/1.1/DTD/svg11.dtd">
<!-- Creator: CorelDRAW X6 -->
<svg xmlns="http://www.w3.org/2000/svg" xml:space="preserve" width="16.9332mm" height="8.4666mm" version="1.1" style="shape-rendering:geometricPrecision; text-rendering:geometricPrecision; image-rendering:optimizeQuality; fill-rule:evenodd; clip-rule:evenodd"
viewBox="0 0 1693 847"
 xmlns:xlink="http://www.w3.org/1999/xlink">
 <defs>
  <style type="text/css">
   <![CDATA[
    .fil1 {fill:#434242}
    .fil2 {fill:#EBECEC;fill-rule:nonzero}
    .fil0 {fill:url(#id0)}
   ]]>
  </style>
  <linearGradient id="id0" gradientUnits="userSpaceOnUse" x1="71.96" y1="417.34" x2="605.87" y2="417.34">
   <stop offset="0" style="stop-color:#FECB00"/>
   <stop offset="1" style="stop-color:#FEDD00"/>
  </linearGradient>
 </defs>
 <g id="Layer_x0020_1">
  <metadata id="CorelCorpID_0Corel-Layer"/>
  <polygon class="fil0" points="339,81 472,165 606,249 606,417 606,585 472,669 339,754 205,669 72,585 72,417 72,249 205,165 "/>
  <path class="fil1" d="M339 88c12,0 21,9 21,20 0,10 -7,18 -17,19l0 158 -7 0 0 -157c-10,-1 -18,-10 -18,-20 0,-11 9,-20 21,-20z"/>
  <polygon class="fil1" points="343,299 339,297 336,299 336,123 343,123 "/>
  <path class="fil1" d="M77 256c6,-9 18,-12 27,-7 8,5 11,15 8,24l132 81 -3 2 0 4 -132 -81c-6,8 -17,10 -26,5 -9,-6 -12,-18 -6,-27z"/>
  <path class="fil1" d="M598 256c5,9 2,21 -7,26 -8,5 -18,3 -24,-4l-131 77 0 -3 -3 -2 131 -77c-4,-9 -1,-19 8,-24 9,-5 21,-2 26,7z"/>
  <path class="fil1" d="M338 746c12,0 21,-10 21,-21 0,-10 -7,-19 -17,-21l0 -170 -3 2 -3 -2 0 169c-10,1 -18,10 -18,21 0,12 9,21 21,21z"/>
  <path class="fil1" d="M80 582c6,9 18,12 27,7 8,-5 11,-15 8,-23l131 -80 -3 -2 0 0 0 -4 -131 80c-6,-8 -17,-10 -25,-5 -9,6 -12,18 -6,27z"/>
  <path class="fil1" d="M600 581c6,-9 3,-21 -7,-27 -8,-5 -18,-3 -25,4l-133 -79 0 4 -3 2 133 78c-4,9 -1,20 8,25 9,5 21,2 27,-7z"/>
  <polygon class="fil1" points="339,301 246,356 339,410 432,356 "/>
  <polygon class="fil1" points="246,359 339,413 339,450 246,398 "/>
  <polygon class="fil1" points="246,400 339,454 339,491 246,438 "/>
  <polygon class="fil1" points="246,442 339,495 339,533 246,480 "/>
  <polygon class="fil1" points="432,359 339,413 339,450 432,398 "/>
  <polygon class="fil1" points="432,400 339,454 339,491 432,438 "/>
  <polygon class="fil1" points="432,442 339,495 339,533 432,480 "/>
  <g id="_524228776">
   <path class="fil2" d="M879 345l94 0 0 40c0,22 -4,41 -11,56 -7,15 -17,26 -31,33 -14,7 -31,11 -52,11 -21,0 -39,-3 -53,-10 -14,-7 -25,-18 -32,-32 -7,-14 -11,-32 -11,-53l0 -80c0,-22 3,-41 10,-56 7,-15 17,-26 31,-33 14,-7 31,-11 52,-11 17,0 32,3 45,9 13,6 23,15 31,27 8,12 14,27 17,45l-29 0c-5,-18 -12,-32 -23,-42 -11,-9 -25,-14 -41,-14 -23,0 -40,6 -51,19 -11,13 -17,32 -17,57l0 80c0,23 6,41 17,53 11,12 29,17 52,17 22,0 39,-6 50,-18 11,-12 17,-31 17,-57l0 -15 -65 0 0 -25zm155 138l0 -270 27 0 0 270 -27 0zm18 0l0 -25 155 0 0 25 -155 0zm0 -122l0 -25 134 0 0 25 -134 0zm0 -123l0 -25 155 0 0 25 -155 0zm323 170l87 -195 28 0 0 270 -27 0 0 -232 3 12 -81 182 -19 0 -81 -179 3 -16 0 232 -27 0 0 -270 28 0 87 195z"/>
   <path class="fil2" d="M805 672l0 -106 10 0 0 106 -10 0zm7 0l0 -10 58 0 0 10 -58 0zm0 -48l0 -10 50 0 0 10 -50 0zm0 -48l0 -10 58 0 0 10 -58 0zm76 96l0 -76 10 0 0 76 -10 0zm48 0l0 -46c0,-7 -2,-12 -5,-16 -3,-4 -8,-6 -14,-6 -6,0 -10,2 -14,5 -3,3 -5,8 -5,14l-1 -15c3,-5 6,-9 10,-11 4,-2 9,-3 14,-3 8,0 14,3 18,8 4,5 6,13 6,23l0 46 -10 0zm50 0c-6,0 -10,-2 -13,-5 -3,-3 -4,-8 -4,-15l0 -77 10 0 0 78c0,3 1,6 2,7 1,2 3,3 6,3l7 0 0 10 -8 0zm-24 -66l0 -9 32 0 0 9 -32 0zm82 68c-10,0 -18,-3 -23,-9 -5,-6 -8,-14 -8,-25l0 -9c0,-11 3,-20 8,-26 5,-6 13,-9 22,-9 9,0 16,3 21,9 5,6 7,15 7,26l0 9 -52 0 0 -9 42 0 0 -1c0,-8 -2,-13 -5,-17 -3,-4 -8,-6 -14,-6 -7,0 -12,2 -15,6 -4,4 -5,10 -5,18l0 10c0,8 2,13 6,18 4,4 9,6 16,6 7,0 13,-3 18,-8l0 0 7 7 0 0c-4,4 -8,6 -12,8 -4,2 -9,3 -13,3zm46 -1l0 -76 10 0 0 76 -10 0zm42 -62c-3,-3 -7,-5 -13,-5 -6,0 -11,2 -14,5 -3,3 -5,8 -5,14l-1 -15c3,-4 6,-8 10,-10 4,-3 9,-4 14,-4 7,0 12,2 16,6l-6 9zm18 93l0 -106 10 0 0 106 -10 0zm32 -30c-5,0 -10,-1 -14,-3 -4,-2 -7,-5 -9,-10l1 -16c0,3 1,6 2,9 1,3 4,6 6,7 3,2 6,3 10,3 6,0 11,-2 14,-6 3,-4 5,-9 5,-16l0 -16c0,-7 -2,-12 -5,-16 -3,-4 -8,-6 -14,-6 -4,0 -7,1 -10,3 -3,2 -5,4 -6,7 -1,3 -2,6 -2,9l-1 -15c3,-5 6,-9 10,-11 4,-2 9,-3 14,-3 8,0 14,3 18,8 4,5 6,13 6,23l0 16c0,10 -2,17 -6,23 -4,5 -10,8 -18,8zm45 -1l0 -76 10 0 0 76 -10 0zm42 -62c-3,-3 -7,-5 -13,-5 -6,0 -11,2 -14,5 -3,3 -5,8 -5,14l-1 -15c3,-4 6,-8 10,-10 4,-3 9,-4 14,-4 7,0 12,2 16,6l-6 9zm20 -33l0 -10 10 0 0 10 -10 0zm0 95l0 -76 10 0 0 76 -10 0zm55 1c-6,0 -11,-1 -16,-3 -5,-2 -9,-5 -13,-8l6 -7c8,6 16,9 24,9 7,0 12,-1 16,-4 4,-2 6,-6 6,-10 0,-4 -1,-6 -3,-8 -2,-2 -5,-3 -9,-3 -4,0 -8,-1 -12,-1 -3,0 -6,-1 -9,-1 -3,-1 -5,-1 -8,-3 -2,-1 -4,-3 -6,-6 -1,-2 -2,-6 -2,-10 0,-7 2,-13 7,-17 5,-4 12,-6 21,-6 5,0 9,1 14,2 5,1 9,3 12,6l-6 7c-7,-4 -14,-7 -20,-7 -6,0 -11,1 -14,4 -3,2 -5,6 -5,10 0,3 1,6 3,7 2,1 5,2 8,3 3,0 7,1 11,1 3,0 6,1 9,1 3,1 6,1 8,3 3,1 5,3 6,6 2,3 2,6 2,11 0,7 -3,13 -8,17 -5,4 -13,6 -23,6zm77 0c-10,0 -18,-3 -23,-9 -5,-6 -8,-14 -8,-25l0 -9c0,-11 3,-20 8,-26 5,-6 13,-9 22,-9 9,0 16,3 21,9 5,6 7,15 7,26l0 9 -52 0 0 -9 42 0 0 -1c0,-8 -2,-13 -5,-17 -3,-4 -8,-6 -14,-6 -7,0 -12,2 -15,6 -4,4 -5,10 -5,18l0 10c0,8 2,13 6,18 4,4 9,6 16,6 7,0 13,-3 18,-8l0 0 7 7 0 0c-4,4 -8,6 -12,8 -4,2 -9,3 -13,3zm68 0c-6,0 -11,-1 -16,-3 -5,-2 -9,-5 -13,-8l6 -7c8,6 16,9 24,9 7,0 12,-1 16,-4 4,-2 6,-6 6,-10 0,-4 -1,-6 -3,-8 -2,-2 -5,-3 -9,-3 -4,0 -8,-1 -12,-1 -3,0 -6,-1 -9,-1 -3,-1 -5,-1 -8,-3 -2,-1 -4,-3 -6,-6 -1,-2 -2,-6 -2,-10 0,-7 3,-13 7,-17 5,-4 12,-6 21,-6 5,0 9,1 14,2 5,1 9,3 12,6l-6 7c-7,-4 -14,-7 -20,-7 -6,0 -11,1 -14,4 -3,2 -5,6 -5,10 0,3 1,6 3,7 2,1 5,2 8,3 3,0 7,1 11,1 3,0 6,1 9,1 3,1 6,1 8,3 3,1 5,3 6,6 2,3 2,6 2,11 0,7 -3,13 -8,17 -5,4 -13,6 -23,6z"/>
  </g>
 </g>
</svg>
