<?xml version="1.0" encoding="UTF-8"?>
<!DOCTYPE svg PUBLIC "-//W3C//DTD SVG 1.1//EN" "http://www.w3.org/Graphics/SVG/1.1/DTD/svg11.dtd">
<!-- Creator: CorelDRAW X6 -->
<svg xmlns="http://www.w3.org/2000/svg" xml:space="preserve" width="189.5mm" height="154mm" version="1.1" style="shape-rendering:geometricPrecision; text-rendering:geometricPrecision; image-rendering:optimizeQuality; fill-rule:evenodd; clip-rule:evenodd"
viewBox="0 0 18950 15400"
 xmlns:xlink="http://www.w3.org/1999/xlink">
 <defs>
  <style type="text/css">
   <![CDATA[
    .str0 {stroke:#2B2A29;stroke-width:20}
    .fil5 {fill:#434242}
    .fil6 {fill:#474545}
    .fil7 {fill:#FFED00}
    .fil4 {fill:black}
    .fil0 {fill:#212121}
    .fil1 {fill:#FED700}
    .fil2 {fill:#FEFEFE}
    .fil3 {fill:#474545}
   ]]>
  </style>
 </defs>
 <g id="Layer_x0020_1">
  <metadata id="CorelCorpID_0Corel-Layer"/>
  <rect class="fil0 str0" x="-243" y="-42" width="19315" height="15505"/>
  <path class="fil1" d="M7328 2227c239,-55 431,114 471,301 52,242 -117,435 -302,474 -508,110 -692,-655 -169,-775zm592 -613l-525 -118c-13,25 -19,59 -25,87 -23,110 7,82 -206,114l-95 -147c-35,8 -429,257 -465,284 21,29 74,114 90,150 -8,21 -85,132 -105,154l-181 -34 -120 527 177 43 30 175c-24,29 -128,89 -155,99 8,24 240,423 291,468l153 -93 149 106 -33 184 524 118c64,-151 -24,-164 134,-189 35,-6 55,-12 90,-14 33,35 76,111 101,153 120,-55 372,-244 468,-281l-93 -165c22,-37 74,-115 105,-148l180 35 118 -527 -179 -49 -26 -178 152 -101c-49,-108 -221,-339 -278,-457 -60,14 -126,85 -164,86 -24,1 -90,-60 -153,-97l38 -188z"/>
  <path class="fil2" d="M8797 22814c-1640,266 -2787,1659 -2547,3291 217,1480 1518,2775 3288,2543 1477,-193 2763,-1545 2548,-3292 -198,-1615 -1762,-2789 -3289,-2542z"/>
  <path class="fil2" d="M20151 24720c-2304,572 -1364,3788 691,3312 796,-184 1531,-969 1303,-2020 -167,-769 -1005,-1538 -1994,-1292z"/>
  <path class="fil2" d="M16813 33331c-1810,417 -1173,3065 587,2685 640,-138 1227,-804 1045,-1643 -140,-645 -804,-1232 -1632,-1041z"/>
  <rect class="fil3 str0" x="6836" y="5594" width="5856" height="4251" rx="93" ry="93"/>
  <rect class="fil1" x="7021" y="5752" width="5486" height="3254" rx="71" ry="71"/>
  <ellipse class="fil1" cx="9169" cy="9386" rx="119" ry="123"/>
  <ellipse class="fil1" cx="9800" cy="9386" rx="119" ry="123"/>
  <ellipse class="fil1" cx="10386" cy="9386" rx="119" ry="123"/>
  <path class="fil4" d="M8776 6829c212,-34 428,128 455,352 30,242 -148,429 -353,456 -245,32 -425,-147 -455,-352 -33,-226 126,-419 353,-456zm-909 341l0 17 203 50c5,43 4,82 11,126 6,38 23,78 26,113 -19,6 -160,95 -175,108l137 220c16,24 29,53 46,72 36,-8 130,-84 176,-104 11,5 2,-1 16,10 61,49 85,83 180,127 -7,55 -45,161 -43,205l339 78 36 -155c4,-16 7,-32 15,-45 40,-6 80,-4 122,-12 35,-7 83,-22 113,-25 11,25 38,61 53,88 16,27 35,60 53,83 28,-5 246,-151 297,-180 -15,-45 -100,-145 -105,-181 11,-16 25,-25 39,-43 31,-39 80,-104 96,-150l205 45c9,-55 27,-114 39,-170 8,-36 38,-140 37,-170l-190 -46c-23,-12 -10,-70 -22,-128 -7,-35 -22,-80 -26,-112l88 -53c23,-15 65,-37 84,-54 -5,-26 -173,-286 -182,-295 -32,9 -142,93 -176,104 -20,-13 -118,-111 -193,-135 2,-62 37,-143 43,-207l-340 -78 -49 198c-16,7 -96,9 -125,14 -35,6 -84,24 -113,25l-101 -162c-7,-9 -3,-4 -7,-9 -25,9 -284,172 -294,183 15,39 94,144 104,176 -19,30 -89,86 -134,193 -69,-4 -138,-37 -207,-43l-70 303c-1,4 -3,7 -5,11 0,1 -2,4 -2,4 0,-1 -1,2 -2,4z"/>
  <path class="fil4" d="M10413 7557c154,-38 284,81 310,201 35,163 -79,285 -202,314 -319,74 -465,-425 -107,-514zm646 309l0 -14c-176,-38 -126,-18 -141,-113 -5,-28 -13,-51 -17,-77l110 -71c-4,-25 -82,-146 -98,-168l-115 69c-25,-15 -33,-29 -61,-49 -26,-18 -44,-28 -72,-42l29 -133c-25,-13 -156,-42 -188,-45 -19,37 -14,97 -37,128 -21,6 -54,5 -78,9 -27,5 -49,14 -76,18 -18,-17 -59,-86 -70,-112 -21,4 -153,87 -168,100l70 121c-38,33 -70,75 -93,127l-137 -29 -44 192 132 30c5,29 3,59 8,87 5,26 16,49 16,76 -34,23 -83,48 -110,71 4,12 85,148 100,163 36,-10 84,-59 120,-65 40,28 70,67 128,87l-29 136 190 46 32 -134c103,-6 132,-22 161,-24l70 112c22,-7 152,-88 164,-102 -14,-37 -51,-78 -67,-115 17,-29 64,-68 91,-132l135 30c9,-40 30,-151 45,-176z"/>
  <path class="fil5" d="M9027 10230c0,94 -137,245 -234,226l-59 11c-64,0 -111,-4 -177,6 -17,13 -30,14 -45,28 -18,15 -18,25 -32,46 -22,84 -3,103 18,165 14,8 40,20 58,35 119,19 1013,7 1211,7 201,0 1090,12 1211,-7 16,-13 46,-29 59,-35 22,-64 39,-80 18,-166 -15,-21 -13,-29 -32,-46 -16,-14 -28,-14 -45,-28 -52,-8 -224,7 -252,-19 -107,-1 -203,-125 -223,-230l-29 -190 -1413 0c-7,46 -12,168 -34,197z"/>
  <rect class="fil1 str0" x="1285" y="7636" width="1948" height="3621"/>
  <path class="fil6" d="M1272 10820l12 -3057 1937 -3c31,232 -37,1650 6,1786 -28,57 -14,711 -15,829 -2,278 -2,557 -7,835l-1934 -8 1 -381zm1998 -3363c-6,-64 -77,-118 -146,-138 -116,-34 -1259,-14 -1465,-14 -176,0 -410,-1 -420,166 -34,35 -30,80 -32,147l-1 1153c0,253 -24,2463 -9,2630 24,266 231,250 412,252l1303 16c245,4 366,-47 373,-292 5,-155 31,-3788 12,-3868l-27 -53z"/>
  <ellipse class="fil1" cx="2259" cy="11430" rx="103" ry="107"/>
  <ellipse class="fil1" cx="2554" cy="11430" rx="103" ry="107"/>
  <ellipse class="fil1" cx="1960" cy="11425" rx="103" ry="107"/>
  <g id="_622895480">
   <path class="fil1" d="M1060 3406l-307 0 0 229 185 0c-14,34 -45,82 -63,115 -21,38 -44,77 -65,114 -80,144 -154,221 -45,379 34,49 62,42 48,109 -19,90 -48,214 -57,302l144 -251c48,-88 96,-166 144,-256l217 -383c19,-33 58,-95 71,-129l450 -1 0 229 229 0 0 -229 450 0c13,34 52,96 71,130l433 767c22,39 55,88 72,123 -9,-87 -38,-207 -56,-296 -22,-108 75,-84 99,-233 21,-129 -167,-350 -225,-490l185 -1 0 -229 -307 0c-31,-8 -388,-692 -429,-738 -26,12 -11,7 -32,27 -45,41 -121,84 -180,106 -26,10 -62,14 -86,27l323 578 -318 1 -6 -229 -216 0 -6 229 -314 0 322 -578c-32,-17 -157,-33 -268,-134 -21,-19 -7,-15 -32,-27 -41,45 -391,717 -429,738z"/>
   <path class="fil1" d="M1672 2305c-57,-299 397,-380 449,-83 52,297 -394,375 -449,83zm110 -485c-194,44 -373,251 -339,503 29,215 214,396 453,396 239,0 424,-180 453,-396 34,-253 -145,-460 -339,-503l0 -473 -229 0 0 473z"/>
  </g>
  <g id="_622894544">
   <path class="fil1" d="M11857 13658c-308,37 -522,291 -502,590 12,177 125,235 299,248 133,10 950,10 1083,0 175,-13 286,-72 298,-248 22,-313 -220,-567 -502,-590 -9,50 -16,60 -46,88 -157,151 -597,123 -631,-88z"/>
   <path class="fil1" d="M12149 12627c-297,36 -464,293 -403,586 47,223 240,555 496,511 210,-36 396,-343 415,-597 22,-285 -220,-534 -507,-499z"/>
  </g>
  <rect class="fil6" x="14676" y="8513" width="2937" height="4075" rx="130" ry="130"/>
  <rect class="fil1" x="14801" y="8626" width="2705" height="3523" rx="37" ry="37"/>
  <ellipse class="fil1" cx="15747" cy="12359" rx="106" ry="110"/>
  <ellipse class="fil1" cx="16151" cy="12359" rx="106" ry="110"/>
  <ellipse class="fil1" cx="16542" cy="12359" rx="106" ry="110"/>
  <path class="fil1" d="M15923 3345c-61,-184 287,-126 402,-127l1080 0c90,-1 180,0 270,0 86,0 195,-18 219,57 58,181 -285,125 -404,125l-1080 0c-90,0 -180,0 -270,0 -85,0 -194,16 -218,-55zm-2 -552c-41,-163 198,-121 416,-120l1350 0c91,0 189,-21 209,61 45,180 -300,119 -418,120l-1350 0c-74,0 -187,19 -208,-62zm-182 -653c-183,38 -318,157 -360,333 -32,133 -13,527 -13,689 0,223 -29,456 93,608 132,165 263,167 522,178 141,6 113,102 112,233 -1,118 -2,239 -1,357 1,66 2,109 62,64l632 -598c65,-78 114,-58 288,-56 118,1 238,0 356,0 448,-1 939,91 1022,-365 29,-162 8,-506 9,-690 1,-213 22,-467 -98,-602 -144,-162 -278,-161 -540,-163l-1399 0c-182,1 -525,-19 -684,14z"/>
  <path class="fil6" d="M16443 2530c323,-48 573,195 612,465 46,323 -193,580 -466,617 -710,95 -876,-975 -146,-1082zm-747 545c0,103 20,199 51,282 36,95 88,150 116,224 -38,29 -26,39 -74,57 -39,14 -63,18 -92,39l-643 637c-71,71 -204,219 -54,339 149,118 254,-14 328,-89 74,-74 620,-610 642,-649 50,-90 2,-87 92,-155 152,58 213,124 433,128 172,3 324,-48 437,-115 709,-420 409,-1517 -412,-1526 -450,-5 -824,368 -824,827z"/>
  <g id="_618859624">
   <g>
    <path class="fil1" d="M8161 14785c7,-16 171,-180 184,-184 15,23 151,314 152,326l-337 -142zm-1600 -1982l106 104c37,37 72,69 109,107 72,73 138,138 214,213l322 319c36,37 71,71 108,107l429 428c71,73 141,134 215,211l213 215 -104 105c-20,20 -93,97 -109,106l-482 -476c-153,-158 -323,-315 -483,-479l-360 -357c-41,-41 -81,-80 -121,-120l-241 -238c-43,-43 -47,-19 61,-128 18,-18 105,-111 124,-117zm-534 -112c31,-20 179,-185 213,-207l178 176c19,19 42,45 61,58 -7,22 -84,93 -105,114 -18,19 -92,97 -108,104 -12,-6 -154,-149 -182,-178 -16,-17 -49,-43 -57,-66zm-112 -19l0 47c33,49 -9,16 68,90 25,24 54,52 82,81 139,145 339,341 485,482 154,149 332,337 485,482 56,53 108,108 163,162 99,98 205,202 321,320 146,148 271,263 404,400 137,142 117,113 294,193 112,50 230,94 342,142 62,27 74,22 107,-23l0 -28 -113 -241c-46,-101 -113,-271 -188,-344 -32,-31 -60,-58 -91,-90 -60,-60 -118,-118 -179,-177 -29,-28 -57,-55 -89,-87 -28,-28 -61,-63 -89,-91l-1429 -1418c-31,-30 -63,-60 -88,-87 -97,-103 -154,-170 -268,-50l-180 180c-22,23 -20,34 -36,57z"/>
    <path class="fil1" d="M7302 13184c4,15 53,59 64,69 29,-21 333,-333 394,-391 122,-116 276,-284 393,-393 20,7 309,306 352,346 13,12 42,38 47,53 -17,18 -102,107 -118,115 -17,-9 -64,-62 -78,-76 -28,-28 -65,-75 -88,-61 -34,21 19,62 50,91 14,13 26,26 39,40 12,13 30,28 40,41 -4,14 -9,16 -19,26 -10,10 -15,14 -24,24 -15,16 -33,35 -50,47 -57,-34 -136,-169 -171,-133 -22,22 31,64 58,91 25,25 57,53 77,80 -35,32 -71,79 -109,107 -14,-8 -96,-93 -118,-116 -10,-10 -32,-39 -51,-15 -22,23 19,52 56,90 27,27 54,51 77,80l-106 104 -235 -233c-14,-15 -19,-26 -50,-20 -10,18 -13,25 4,43 32,34 226,229 243,240 -9,27 -129,136 -152,159 -24,-15 -57,-53 -78,-74 -26,-27 -67,-78 -90,-63 -48,32 92,109 129,173l-21 26c18,20 45,47 64,65 21,-11 613,-610 676,-672 76,-75 191,-155 122,-243l-406 -407c-90,-81 -170,35 -244,109l-407 406c-79,80 -200,194 -271,272z"/>
   </g>
   <path class="fil1" d="M7281 14270c-17,-19 -45,-46 -65,-64 -11,7 -17,14 -26,21 -22,-13 -62,-59 -83,-80 -31,-31 -68,-83 -90,-49 -15,23 33,60 61,87 23,23 60,56 77,80 -24,22 -132,142 -159,151l-238 -241c-18,-17 -24,-18 -46,-7 -7,36 12,40 51,81 23,24 45,44 68,68 45,46 92,89 134,136 -18,19 -33,35 -52,53 -17,17 -37,35 -53,52l-119 -116c-9,-9 -30,-39 -50,-17 -23,19 3,39 13,49 22,22 110,107 118,121 -29,37 -75,74 -107,109l-120 -116c-48,-51 -81,-12 -37,32 14,14 25,25 40,40 15,16 67,61 78,81 -12,16 -77,83 -93,94 -17,-6 -10,-4 -21,-16 -7,-7 -12,-12 -20,-20 -13,-14 -24,-24 -38,-37 -26,-26 -65,-78 -88,-65 -19,20 -14,31 4,49 23,24 116,110 124,127 -7,13 -43,47 -56,59 -20,20 -39,39 -59,59 -15,-6 -86,-80 -101,-96 -33,-35 -66,-67 -101,-101 -34,-34 -65,-66 -99,-99 -16,-16 -92,-88 -98,-103 64,-66 131,-128 195,-195 65,-68 133,-130 198,-198 45,-47 369,-364 391,-394 -11,-12 -53,-60 -69,-64 -76,70 -191,191 -270,269 -91,91 -178,180 -270,270 -46,45 -88,88 -134,134 -73,73 -192,155 -117,243l406 407c89,79 171,-41 243,-113 46,-46 90,-90 136,-136 91,-92 179,-179 270,-270 31,-31 263,-259 270,-274z"/>
  </g>
  <g id="_618845248">
   <circle class="fil1" cx="2281" cy="4387" r="147"/>
   <circle class="fil1" cx="2281" cy="4847" r="147"/>
   <circle class="fil1" cx="2281" cy="5247" r="147"/>
   <circle class="fil1" cx="2281" cy="5657" r="147"/>
   <circle class="fil1" cx="2281" cy="6067" r="147"/>
   <circle class="fil1" cx="2281" cy="6507" r="147"/>
   <circle class="fil1" cx="2281" cy="6927" r="147"/>
  </g>
  <circle class="fil1" cx="7910" cy="10299" r="147"/>
  <circle class="fil1" cx="7910" cy="10759" r="147"/>
  <circle class="fil1" cx="7910" cy="11159" r="147"/>
  <circle class="fil1" cx="7910" cy="11569" r="147"/>
  <circle class="fil1" cx="7910" cy="11979" r="147"/>
  <circle class="fil1" cx="12168" cy="10082" r="147"/>
  <circle class="fil1" cx="12168" cy="10542" r="147"/>
  <circle class="fil1" cx="12168" cy="10942" r="147"/>
  <circle class="fil1" cx="12168" cy="11352" r="147"/>
  <circle class="fil1" cx="12168" cy="11762" r="147"/>
  <circle class="fil1" cx="12168" cy="12202" r="147"/>
  <circle class="fil1" cx="16969" cy="4548" r="147"/>
  <circle class="fil1" cx="16969" cy="5008" r="147"/>
  <circle class="fil1" cx="16969" cy="5408" r="147"/>
  <circle class="fil1" cx="16969" cy="5818" r="147"/>
  <circle class="fil1" cx="16969" cy="6228" r="147"/>
  <circle class="fil1" cx="16969" cy="6668" r="147"/>
  <circle class="fil1" cx="16969" cy="7088" r="147"/>
  <circle class="fil1" cx="7444" cy="4072" r="147"/>
  <circle class="fil1" cx="7444" cy="4532" r="147"/>
  <circle class="fil1" cx="7444" cy="4932" r="147"/>
  <circle class="fil1" cx="7444" cy="5342" r="147"/>
  <circle class="fil7" cx="7444" cy="6612" r="147"/>
  <circle class="fil1" cx="16969" cy="7548" r="147"/>
  <circle class="fil1" cx="16969" cy="7958" r="147"/>
  <path class="fil0" d="M8776 6829c212,-34 428,128 455,352 30,242 -148,429 -353,456 -245,32 -425,-147 -455,-352 -33,-226 126,-419 353,-456zm-909 341l0 17 203 50c5,43 4,82 11,126 6,38 23,78 26,113 -19,6 -160,95 -175,108l137 220c16,24 29,53 46,72 36,-8 130,-84 176,-104 11,5 2,-1 16,10 61,49 85,83 180,127 -7,55 -45,161 -43,205l339 78 36 -155c4,-16 7,-32 15,-45 40,-6 80,-4 122,-12 35,-7 83,-22 113,-25 11,25 38,61 53,88 16,27 35,60 53,83 28,-5 246,-151 297,-180 -15,-45 -100,-145 -105,-181 11,-16 25,-25 39,-43 31,-39 80,-104 96,-150l205 45c9,-55 27,-114 39,-170 8,-36 38,-140 37,-170l-190 -46c-23,-12 -10,-70 -22,-128 -7,-35 -22,-80 -26,-112l88 -53c23,-15 65,-37 84,-54 -5,-26 -173,-286 -182,-295 -32,9 -142,93 -176,104 -20,-13 -118,-111 -193,-135 2,-62 37,-143 43,-207l-340 -78 -49 198c-16,7 -96,9 -125,14 -35,6 -84,24 -113,25l-101 -162c-7,-9 -3,-4 -7,-9 -25,9 -284,172 -294,183 15,39 94,144 104,176 -19,30 -89,86 -134,193 -69,-4 -138,-37 -207,-43l-70 303c-1,4 -3,7 -5,11 0,1 -2,4 -2,4 0,-1 -1,2 -2,4z"/>
  <path class="fil0" d="M10413 7557c154,-38 284,81 310,201 35,163 -79,285 -202,314 -319,74 -465,-425 -107,-514zm646 309l0 -14c-176,-38 -126,-18 -141,-113 -5,-28 -13,-51 -17,-77l110 -71c-4,-25 -82,-146 -98,-168l-115 69c-25,-15 -33,-29 -61,-49 -26,-18 -44,-28 -72,-42l29 -133c-25,-13 -156,-42 -188,-45 -19,37 -14,97 -37,128 -21,6 -54,5 -78,9 -27,5 -49,14 -76,18 -18,-17 -59,-86 -70,-112 -21,4 -153,87 -168,100l70 121c-38,33 -70,75 -93,127l-137 -29 -44 192 132 30c5,29 3,59 8,87 5,26 16,49 16,76 -34,23 -83,48 -110,71 4,12 85,148 100,163 36,-10 84,-59 120,-65 40,28 70,67 128,87l-29 136 190 46 32 -134c103,-6 132,-22 161,-24l70 112c22,-7 152,-88 164,-102 -14,-37 -51,-78 -67,-115 17,-29 64,-68 91,-132l135 30c9,-40 30,-151 45,-176z"/>
  <path class="fil0" d="M9545 8331c87,-20 157,42 172,110 19,88 -43,159 -110,173 -186,40 -253,-239 -62,-283zm216 -224l-192 -43c-5,9 -7,21 -9,32 -8,40 3,30 -75,42l-35 -54c-13,3 -157,94 -170,104 8,11 27,42 33,55 -3,8 -31,48 -38,56l-66 -12 -44 193 65 16 11 64c-9,11 -47,32 -57,36 3,9 88,154 106,171l56 -34 54 39 -12 67 191 43c24,-55 -9,-60 49,-69 13,-2 20,-4 33,-5 12,13 28,40 37,56 44,-20 136,-89 171,-103l-34 -60c8,-13 27,-42 38,-54l66 13 43 -193 -66 -18 -9 -65 56 -37c-18,-39 -81,-124 -101,-167 -22,5 -46,31 -60,31 -9,0 -33,-22 -56,-35l14 -69z"/>
  <path class="fil0" d="M2792 9128c216,-50 389,103 426,272 47,219 -106,393 -273,429 -459,99 -625,-592 -153,-700zm535 -554l-474 -107c-11,22 -17,53 -22,79 -21,99 6,74 -186,103l-86 -133c-31,7 -388,232 -420,257 19,26 67,103 82,136 -7,19 -77,119 -95,139l-163 -31 -108 476 160 39 27 158c-22,26 -116,80 -140,89 7,21 217,382 263,423l138 -84 135 96 -30 167 473 107c58,-136 -22,-149 121,-171 32,-5 50,-11 81,-13 30,32 69,100 92,138 108,-50 336,-220 422,-254l-84 -149c20,-33 67,-104 95,-134l163 32 107 -477 -162 -44 -23 -160 138 -91c-44,-98 -200,-306 -251,-413 -54,13 -114,77 -148,78 -22,1 -81,-54 -138,-88l34 -170z"/>
  <path class="fil0" d="M16462 9676c171,-28 346,104 369,285 24,196 -120,347 -286,369 -198,26 -344,-119 -368,-285 -27,-183 102,-339 285,-369zm-736 276l0 14 164 40c4,35 3,66 9,102 5,30 19,63 21,91 -15,5 -130,77 -141,88l111 178c13,20 23,43 37,58 29,-7 105,-68 142,-84 9,4 2,-1 13,8 49,40 69,67 146,103 -6,44 -36,131 -35,166l274 63 29 -126c3,-13 5,-26 12,-37 32,-5 64,-3 99,-10 28,-5 67,-18 92,-21 9,20 31,50 43,71 13,22 28,49 43,67 22,-4 199,-123 241,-145 -12,-36 -81,-118 -85,-147 9,-13 21,-21 32,-34 25,-32 65,-84 78,-121l166 37c7,-45 22,-93 32,-138 7,-29 30,-113 30,-137l-154 -37c-18,-9 -8,-57 -18,-104 -6,-28 -17,-65 -21,-90l71 -43c19,-12 52,-30 68,-43 -4,-21 -140,-231 -147,-239 -26,7 -115,75 -142,84 -16,-10 -96,-90 -156,-109 2,-50 30,-116 35,-167l-275 -63 -39 161c-13,5 -78,7 -101,11 -28,4 -68,19 -92,20l-82 -131c-5,-7 -2,-3 -6,-7 -20,7 -230,139 -238,148 12,31 76,117 84,142 -16,24 -72,70 -109,156 -56,-3 -112,-30 -168,-35l-57 245c-1,3 -2,6 -4,9 0,1 -1,4 -2,3 0,-1 -1,2 -2,3z"/>
  <path class="fil0" d="M16027 11104c154,-38 284,81 310,201 35,163 -79,285 -202,314 -319,74 -465,-425 -107,-514zm646 309l0 -14c-176,-38 -126,-18 -141,-113 -5,-28 -13,-51 -17,-77l110 -71c-4,-25 -82,-146 -98,-168l-115 69c-25,-15 -33,-29 -61,-49 -26,-18 -44,-28 -72,-42l29 -133c-25,-13 -156,-42 -188,-45 -19,37 -14,97 -37,128 -21,6 -54,5 -78,9 -27,5 -49,14 -76,18 -18,-17 -59,-86 -70,-112 -21,4 -153,87 -168,100l70 121c-38,33 -70,75 -93,127l-137 -29 -44 192 132 30c5,29 3,59 8,87 5,26 16,49 16,76 -34,23 -83,48 -110,71 4,12 85,148 100,163 36,-10 84,-59 120,-65 40,28 70,67 128,87l-29 136 190 46 32 -134c103,-6 132,-22 161,-24l70 112c22,-7 152,-88 164,-102 -14,-37 -51,-78 -67,-115 17,-29 64,-68 91,-132l135 30c9,-40 30,-151 45,-176z"/>
 </g>
</svg>
