<?xml version="1.0" encoding="UTF-8"?>
<!DOCTYPE svg PUBLIC "-//W3C//DTD SVG 1.1//EN" "http://www.w3.org/Graphics/SVG/1.1/DTD/svg11.dtd">
<!-- Creator: CorelDRAW X6 -->
<svg xmlns="http://www.w3.org/2000/svg" xml:space="preserve" width="25.4mm" height="25.4mm" version="1.1" style="shape-rendering:geometricPrecision; text-rendering:geometricPrecision; image-rendering:optimizeQuality; fill-rule:evenodd; clip-rule:evenodd"
viewBox="0 0 2540 2540"
 xmlns:xlink="http://www.w3.org/1999/xlink">
 <defs>
  <style type="text/css">
   <![CDATA[
    .str0 {stroke:#FED700;stroke-width:8.47}
    .fil4 {fill:#111224}
    .fil0 {fill:#212121}
    .fil2 {fill:#FAFAFA}
    .fil3 {fill:#FBFBFB}
    .fil1 {fill:#FEFEFE}
   ]]>
  </style>
 </defs>
 <g id="Layer_x0020_1">
  <metadata id="CorelCorpID_0Corel-Layer"/>
  <path class="fil0 str0" d="M802 1320c-18,-274 189,-491 439,-509 274,-20 492,185 513,437 22,276 -190,495 -441,513 -274,20 -494,-189 -511,-440zm520 -1113l-174 4 -61 -154 -197 46 14 169c-55,14 -107,46 -156,69 -51,-40 -68,-78 -119,-119l-164 117 77 148c-22,22 -41,37 -61,60 -17,20 -41,44 -52,66 -50,-12 -107,-51 -157,-67 -36,52 -69,116 -108,168l62 57c21,16 49,39 66,58l-50 126 -172 -3 -33 202 158 47 0 177 -155 50 37 199 169 -7c4,5 67,152 68,159l-121 112c5,18 102,154 118,170l147 -76c32,27 64,73 124,120l-69 154c25,20 148,99 176,110l50 -63c16,-18 39,-44 50,-63l163 63 -2 171 203 32 48 -158 174 -1 62 157 198 -47c-11,-182 -65,-142 140,-233 47,30 85,102 127,121 17,-24 136,-91 158,-120 -15,-35 -69,-120 -74,-151 23,-12 103,-93 115,-118l156 68c11,-10 103,-155 109,-171 -40,-39 -84,-69 -125,-109l63 -160 166 3 36 -201 -160 -49 -2 -171c32,-25 131,-43 156,-67l-46 -194 -164 16c-15,-25 -24,-55 -35,-81 -11,-27 -27,-52 -36,-76 38,-42 105,-94 119,-119l-117 -163 -148 77c-12,-14 -15,-17 -29,-30 -9,-8 -20,-22 -30,-32 -21,-22 -45,-33 -66,-59l67 -149c-12,-13 -152,-100 -171,-109 -9,7 -20,19 -28,29 -11,14 -17,20 -28,34 -14,17 -39,51 -58,63 -55,-26 -102,-38 -158,-61l4 -168 -203 -32 -49 160z"/>
  <path class="fil1" d="M-9837 -1984c28,411 388,753 835,721 409,-29 756,-388 720,-840 -33,-412 -390,-749 -838,-716 -409,30 -748,386 -717,834z"/>
  <path class="fil1" d="M-10481 673c-291,52 -545,325 -480,682 53,290 329,538 684,475 284,-50 539,-332 473,-684 -53,-286 -328,-536 -677,-473z"/>
  <path class="fil1" d="M-6103 -1168c-249,42 -470,281 -415,587 43,244 281,464 582,412 248,-43 467,-277 416,-582 -41,-249 -280,-467 -583,-416z"/>
  <path class="fil2" d="M-11437 3867c29,-50 66,-14 105,-2l6 -18c-36,-49 -150,-51 -138,44 36,51 69,34 117,64 -3,40 -16,55 -59,54 -49,-2 -52,-30 -65,10 51,36 149,19 155,-44 6,-81 -100,-52 -120,-109z"/>
  <path class="fil2" d="M-10823 3935c23,-27 46,-38 63,-68 -37,0 -40,-1 -60,19 -22,22 -11,20 -40,36 0,-21 1,-44 1,-65 -1,-40 7,-28 -14,-41 -26,12 -10,-13 -17,25l1 177c6,22 -5,9 15,18 21,-13 10,8 14,-33 1,-15 0,-25 2,-43 57,18 23,81 100,74 -18,-33 -46,-62 -66,-100z"/>
  <path class="fil3" d="M-11177 3968c-14,-90 78,-99 89,-32 15,85 -79,97 -89,32zm-26 17c29,91 179,53 142,-66 -29,-94 -180,-56 -142,66z"/>
  <path class="fil4" d="M-11177 3968c10,65 104,53 89,-32 -11,-67 -104,-58 -89,32z"/>
 </g>
</svg>
